PathFileType	4	(X/Y/Z)	 s09c0103.trc
DataRate	CameraRate	NumFrames	NumMarkers	Units	OrigDataRate	OrigDataStartFrame	OrigNumFrames
200	200	4	50	mm	200	251	2000
Frame#	Time	racr			lacr			c7			jug			rlel			rdr			llel			ldr			s2			lic			ric			lasi			rasi			rpsi			lpsi			rgt			lgt			rth1			rth2			rth3			rth4			rlfc			rmfc			rsh1			rsh2			rsh3			rsh4			rlmal			rmmal			rcal			rtoe			rmt5			lth1			lth2			lth4			lth3			llfc			lmfc			llmal			lmmal			lcal			lmt5			lsh1			lsh2			lsh3			lsh4			ltoe			SBIKE			LBIKE			RBIKE			
		X1	Y1	Z1	X2	Y2	Z2	X3	Y3	Z3	X4	Y4	Z4	X5	Y5	Z5	X6	Y6	Z6	X7	Y7	Z7	X8	Y8	Z8	X9	Y9	Z9	X10	Y10	Z10	X11	Y11	Z11	X12	Y12	Z12	X13	Y13	Z13	X14	Y14	Z14	X15	Y15	Z15	X16	Y16	Z16	X17	Y17	Z17	X18	Y18	Z18	X19	Y19	Z19	X20	Y20	Z20	X21	Y21	Z21	X22	Y22	Z22	X23	Y23	Z23	X24	Y24	Z24	X25	Y25	Z25	X26	Y26	Z26	X27	Y27	Z27	X28	Y28	Z28	X29	Y29	Z29	X30	Y30	Z30	X31	Y31	Z31	X32	Y32	Z32	X33	Y33	Z33	X34	Y34	Z34	X35	Y35	Z35	X36	Y36	Z36	X37	Y37	Z37	X38	Y38	Z38	X39	Y39	Z39	X40	Y40	Z40	X41	Y41	Z41	X42	Y42	Z42	X43	Y43	Z43	X44	Y44	Z44	X45	Y45	Z45	X46	Y46	Z46	X47	Y47	Z47	X48	Y48	Z48	X49	Y49	Z49	X50	Y50	Z50	
251	1.2550	478.305052	1264.199172	-47.049878	534.439079	1263.314567	-347.114291	467.835050	1302.473972	-201.167026	469.945875	1165.120149	-205.313784	458.639269	1005.845520	5.528203	680.845992	889.526419	-45.823665	516.174956	1040.813516	-515.778419	692.908310	875.998784	-449.332862	-6.916477	1129.659940	-246.838473	132.601528	1117.805023	-390.952446	132.215108	1132.054564	-92.297662	170.119687	1060.211485	-366.439785	180.364486	1082.370871	-112.125798	17.926971	1161.064542	-185.780549	24.586849	1164.079396	-296.734384	118.994478	998.915436	-49.421524	96.727306	987.068953	-426.954744	237.948645	927.001691	-58.016114	321.269840	901.405526	-67.117374	376.989631	833.218397	-76.141793	338.118506	926.425921	-88.318031	448.661307	756.747648	-109.750707	432.886622	734.619046	-205.518161	409.544744	659.932656	-74.487571	407.729072	571.378410	-88.985824	363.636755	495.945027	-84.813553	430.521759	567.729232	-121.394731	339.030643	395.594609	-81.457295	333.194181	408.754480	-159.518262	264.165915	337.448625	-117.591851	523.045915	407.562035	-127.272926	451.316097	366.639927	-60.182461	195.201469	891.140141	-429.117149	266.979064	846.362617	-422.937400	294.254483	869.913232	-411.573245	309.098861	766.460633	-421.529122	344.453074	671.871799	-411.688414	358.520839	654.927054	-313.779641	93.127423	407.699737	-400.555641	118.296120	404.110245	-331.229898	23.080382	412.140369	-359.303349	131.534330	280.139384	-427.357814	277.654947	597.722504	-429.588624	236.993333	522.238330	-415.796519	161.043625	476.195057	-410.477049	257.854478	507.869226	-385.150567	219.252683	239.067950	-364.783738	-64.788467	851.879482	-238.916031	20.855236	84.837352	-442.108024	21.252082	84.017596	-43.739619	
252	1.2600	480.547554	1264.488699	-46.113304	533.230892	1264.233073	-346.290049	468.442348	1303.014585	-199.685271	470.204417	1165.642711	-204.400502	460.659053	1007.026569	9.343249	681.010834	889.365372	-44.686610	513.936689	1040.275806	-513.763574	693.037467	877.299299	-448.587724	-6.864999	1130.650187	-243.632050	131.852320	1120.428549	-387.880275	132.572858	1131.125004	-88.966841	169.570574	1062.457677	-364.057688	180.674418	1081.509780	-109.399370	19.856779	1160.133029	-183.197955	25.906540	1164.666009	-293.157822	118.491514	997.961834	-47.371342	96.590804	990.441519	-424.835502	236.551481	924.673731	-56.235189	319.570426	898.056878	-65.265967	374.512624	829.233770	-74.438916	336.761903	923.027231	-86.388183	445.353266	751.958247	-108.120935	430.647569	729.692893	-203.966801	406.659593	654.604897	-73.121832	406.211620	565.835402	-87.918305	363.343455	489.962674	-84.285393	430.384553	562.815170	-118.849789	340.034538	389.173074	-81.311787	334.937487	400.747546	-161.273198	265.191658	331.204784	-117.867852	524.576469	400.902892	-127.145331	453.185769	360.904860	-59.087136	196.328210	894.736141	-427.458034	268.366888	850.376612	-421.266123	295.419517	874.037214	-409.628811	310.928685	770.662257	-420.280164	346.844285	676.056907	-410.938359	360.431401	658.965116	-312.976375	92.650381	414.369648	-400.475067	118.383739	409.890073	-331.043697	22.599053	419.145577	-359.184850	130.370887	286.626261	-427.310516	279.427810	602.443063	-428.987171	237.972965	527.282819	-415.304222	161.436147	482.206254	-410.128796	258.603731	512.723297	-384.686590	217.927120	245.095602	-364.775054	-64.727376	851.904740	-238.702894	20.842651	84.875384	-442.100052	21.256867	84.017872	-43.717609	
253	1.2650	482.876806	1264.773923	-45.309485	532.027694	1265.231908	-345.458266	469.082150	1303.571767	-198.292571	470.422708	1166.141940	-203.675045	462.989639	1008.202295	13.129315	681.262338	889.081923	-43.484759	511.527476	1039.740231	-510.946521	692.631007	878.009334	-447.423642	-6.780769	1130.197138	-244.824854	131.245800	1123.027661	-384.824582	133.084393	1130.277910	-85.667102	169.148740	1064.686821	-361.608124	181.007323	1080.646129	-106.740461	20.168687	1161.490472	-178.471627	25.850549	1166.207377	-288.982045	117.996938	996.942386	-45.535825	96.681044	993.938198	-422.700455	235.243704	922.204481	-54.559943	317.909420	894.679227	-63.468313	371.873794	825.154062	-72.993358	335.465418	919.415425	-84.534943	441.951219	746.981223	-106.576174	431.882554	725.507274	-202.728481	403.976638	649.125863	-71.870345	404.833960	560.364528	-86.831454	363.043881	483.922270	-83.755099	429.525808	557.693301	-117.430796	340.882733	382.791570	-81.135062	335.959654	394.600662	-160.989372	266.146641	324.915394	-118.145915	525.958493	393.997934	-127.051545	454.407025	354.129867	-59.042802	197.565857	898.383578	-425.831150	269.853204	854.480155	-419.656204	296.672046	878.257573	-407.726457	312.944290	775.024878	-419.090453	349.415378	680.411732	-410.145348	362.579609	662.625020	-312.135198	92.522895	421.107848	-400.462953	118.246239	416.435972	-330.933860	22.414359	426.301185	-359.138981	129.501443	293.160069	-427.180557	281.476816	607.186693	-428.453666	239.174385	532.478159	-414.851245	162.124685	488.230014	-409.850234	259.616628	517.756283	-384.222320	216.750832	251.118656	-364.642444	-64.659516	851.940911	-238.464950	20.839260	84.952640	-442.085724	21.260130	84.002172	-43.716027	
254	1.2700	485.316332	1265.033148	-44.582468	530.756195	1266.197265	-344.716859	469.683186	1304.124017	-197.002706	470.747933	1166.704163	-202.970980	465.537515	1009.582588	16.983919	681.669485	888.874431	-42.386949	508.636449	1039.296064	-507.732655	692.227261	878.712888	-446.549927	-6.361738	1132.908864	-234.637458	130.674988	1125.628223	-381.694693	133.848057	1129.441653	-81.794361	168.824923	1066.913779	-359.127071	181.323842	1079.923811	-104.193718	20.888885	1160.869204	-175.305643	25.814171	1167.752617	-284.732899	117.721058	995.921231	-43.635995	96.919051	997.446782	-420.581416	233.981182	919.699232	-52.926628	316.311314	891.033107	-61.883413	369.228237	820.780235	-71.693294	334.247687	915.521114	-82.771064	438.595268	741.861858	-105.196619	426.481694	718.087548	-201.764299	401.366948	643.567131	-70.716749	403.889767	554.658320	-85.819540	362.761044	477.914561	-83.296686	427.952455	552.643405	-116.628792	341.647364	376.463363	-80.883561	336.703847	388.509448	-160.698340	266.997730	318.728300	-118.291384	527.206088	386.981191	-126.974573	455.573515	347.391687	-58.927222	198.886100	902.076632	-424.249657	271.434585	858.621095	-418.174182	298.059805	882.453784	-405.922989	315.084309	779.409115	-418.026376	352.159308	684.842717	-409.405399	365.330830	666.614404	-311.405790	92.728750	427.989381	-400.499195	118.324018	423.143619	-330.871298	22.627875	433.566952	-359.146043	128.951950	299.782122	-427.065096	283.732467	612.110216	-427.875836	240.512584	537.851235	-414.162572	163.170344	494.256484	-409.589325	261.576570	523.181661	-385.121288	215.905162	257.149708	-364.582896	-64.561846	851.968363	-238.187692	20.857646	85.069493	-442.105603	21.250131	84.023627	-43.707664	
